<?xml version="1.0" standalone="no"?>
<!DOCTYPE svg PUBLIC "-//W3C//DTD SVG 20010904//EN"
 "http://www.w3.org/TR/2001/REC-SVG-20010904/DTD/svg10.dtd">
<svg version="1.0" xmlns="http://www.w3.org/2000/svg"
 width="180.000000pt" height="180.000000pt" viewBox="0 0 180.000000 180.000000"
 preserveAspectRatio="xMidYMid meet">
<metadata>
Created by potrace 1.11, written by Peter Selinger 2001-2013
</metadata>
<g transform="translate(0.000000,180.000000) scale(0.100000,-0.100000)"
fill="#000000" stroke="none">
<path d="M1497 1794 c-1 -1 -22 -4 -47 -7 -280 -33 -587 -196 -780 -413 -93
-105 -102 -115 -107 -111 -2 3 -23 0 -46 -5 -23 -5 -53 -12 -66 -14 -13 -3
-57 -21 -97 -40 -122 -60 -224 -160 -287 -284 -31 -59 -73 -187 -65 -195 2 -2
23 14 47 35 79 70 194 118 298 125 l35 2 -7 -45 c-9 -63 -12 -67 -58 -98 -109
-72 -182 -195 -193 -325 l-4 -57 35 5 c40 5 40 5 19 -45 -18 -43 -44 -169 -36
-177 16 -16 139 7 202 38 l31 16 -4 -28 c-9 -53 13 -60 123 -36 85 17 201 102
257 187 14 21 31 38 37 39 6 0 19 3 28 5 10 3 31 7 48 11 30 5 30 5 25 -33
-18 -126 -57 -217 -125 -294 -21 -24 -38 -45 -36 -47 8 -8 130 31 191 62 113
55 211 149 277 265 28 48 66 164 72 218 2 21 13 40 32 54 120 94 243 232 320
361 61 102 129 268 150 367 22 103 31 201 32 326 l1 145 -150 -2 c-82 -2 -150
-4 -152 -5z"/>
</g>
</svg>
